<svg data-name="Ebene 1" xmlns="http://www.w3.org/2000/svg" viewBox="0 0 55.97 23.27"><path d="m13.79 6.25.04.02c.09.06.15.08.22.12.08.04.19.1.3.13.04.01.08.02.12.02h.16c.02.1.06.47.05.75v.27c0 .06-.01.12-.05.19-.05.11-.08.16-.16.22-.02.01-.03.02-.07.04-.03.01-.05.02-.08.03-.03.02-.06.04-.1.06-.02.01-.03.03-.04.04-.08-.11-.15-.21-.22-.3l.09-.19c.13-.19.09-.46.09-.59s-.1-.27-.26-.33c-.09-.04-.14-.02-.26-.02.06-.16.12-.32.17-.49Zm.87 2.52c-.1-.09-.19-.17-.27-.29-.04-.06-.08-.11-.11-.17.02-.02.03-.04.05-.05.08-.07.16-.06.25-.13a.68.68 0 0 0 .21-.29c.09-.19.06-.32.07-.53.02-.32-.04-.73-.05-.81 0-.06-.04-.09-.09-.12-.09-.04-.19-.01-.31-.05-.2-.05-.3-.12-.47-.23a.304.304 0 0 1-.07-.05c.08-.23.16-.48.27-.75l.08-.21s.24.28.35.34l.18.09c.05.02.1.05.16.09.07.04.13.07.19.1l.15.06c.08.03.12.06.15.12.03.04.1.37.13.44.02.07.07.42.07.48.02.42-.3 1.11-.51 1.45-.05.08-.15.16-.21.23s-.14.14-.21.26Zm1.7-3.86c.07.12.14.22.2.32 0 .01.01.02.02.03l.02.03V5.96c0 .16.02.31.04.45.01.13.02.24.01.35-.01.17-.09.29-.2.43-.06.08-.13.15-.19.24-.07.09-.14.19-.19.31-.09.19-.16.33-.21.48-.07.17-.12.34-.16.51-.02.11-.1.21-.21.3l-.17.14c-.05.04-.11.09-.16.16l-.08-.1-.04-.06c-.05-.08-.11-.15-.18-.22l-.05-.05c.13-.22.27-.29.4-.5.2-.35.57-1.16.54-1.64 0-.17-.03-.31-.07-.49-.04-.19-.03-.29-.12-.45-.12-.22-.34-.2-.55-.34-.24-.16-.49-.18-.6-.45-.03-.07-.06-.14-.06-.18 0-.13.06-.23.13-.36.06-.1.16-.22.18-.24.05-.05.34-.13.67-.11.19.01.34.07.51.2.22.18.4.38.54.57ZM6.11 11.02c.53-.81.81-1.79 1.59-2.75.67-.83 1.21-1.15 2-1.87.74-.68 1.31-.91 1.91-1.72.59-.8.81-1.66 1.1-2.3.27-.58.95-.98 1.56-.71.61.27.61 1.15.54 1.62-.06.38-.56 1.18-.87 1.96-.27.66-.39 1.2-.63 1.71-.07.15-.08.37.06.52.24.25.5.58.86 1.1.19.28.43.38.64.68.23.34.35.64.44.96.03.09.24.03.21-.06-.12-.3-.21-.47-.24-.72.13-.18.51-.34.59-.68.08-.37.19-.6.36-.96.2-.43.57-.59.6-1.05.02-.23-.03-.5-.05-.82-.02-.29.02-.67-.03-.76-.17-.27-.38-.57-.53-1.04-.22-.71-.33-.98-.45-1.53s.17-1.14.71-1.19c.74-.07.93.29 1.12 1.24.07.35.07.6.21.92.23.52.58 1.19.66 1.71.13.81.37 1.27.47 1.97.04.26-.09.39-.15.64-.17.63-.31.97-.53 1.58-.27.74-.45 1.14-.76 1.89-.4.96-1.01 1.71-2.41 2.05-1.57.39-2.53.52-4.05.67-1.19.11-1.63.68-2.44 1.44l4.31 7.76L24.93 0H0l6.11 11.01Z" style="fill:#1d1d1b;fill-rule:evenodd"/><path d="M41.31 11.21c.1.05.15.08.21.1.1.04.21.07.31.11 1.12.39 1.64 1.21 1.76 2.34.02.19.02.38.02.57v8.09c0 .45-.09.57-.53.58-.84.02-1.68.02-2.52 0-.36 0-.45-.13-.45-.5v-7.4c0-.47-.03-.94-.21-1.39-.16-.4-.4-.74-.86-.79-.39-.04-.8 0-1.19 0-.16 0-.25.12-.25.29V22.34c0 .44-.1.58-.54.62-.53.04-1.07.04-1.6.04-.25 0-.5 0-.75-.02-.47-.04-.62-.19-.62-.66V1.07c0-.16.02-.33.05-.49.06-.31.21-.43.52-.43h1.16c.9 0 1.79-.01 2.69 0 .96.01 1.88.2 2.73.66 1.32.71 2.02 1.83 2.22 3.28.06.46.07.94.07 1.4 0 .99.02 1.99-.03 2.98-.06 1.17-.66 2.01-1.73 2.5-.13.06-.26.12-.44.2Zm-3.73-4.49v2.43c0 .54.09.62.63.62 1.09 0 1.77-.67 1.78-1.76 0-.79.02-1.57 0-2.36a4.2 4.2 0 0 0-.18-1.17c-.16-.52-.53-.84-1.11-.87-.18 0-.36-.02-.53-.02-.45 0-.58.14-.59.59V6.7Zm7.99 4.86V.84c0-.33.07-.44.4-.51.32-.06.64-.1.97-.11.45-.01.9 0 1.34.03.18.01.36.07.53.13.18.06.26.2.26.4v7.93c0 .15.01.29.03.44 0 .04.06.1.08.1.04 0 .1-.05.12-.09.05-.11.07-.22.1-.33L51.71.67c.06-.2.17-.3.37-.32.1-.01.21-.02.31-.02.82.01 1.63.02 2.45.04.13 0 .25.04.38.07.16.04.21.12.16.3-.27.83-.53 1.66-.8 2.49-.63 1.92-1.27 3.83-1.92 5.75-.21.62-.21 1.22-.04 1.85 1.11 3.91 2.21 7.82 3.31 11.73.06.23.02.33-.22.37-.29.05-.58.09-.88.1-.61.02-1.21 0-1.82 0-.06 0-.12 0-.18-.01-.33-.04-.45-.14-.53-.46l-.51-2.01-1.77-7.11a.983.983 0 0 0-.05-.16c-.05-.11-.14-.14-.23-.05-.08.07-.14.15-.2.24-.31.51-.48 1.07-.48 1.67v7.14c0 .4-.1.57-.5.64-.43.07-.88.1-1.32.11-.31.01-.62-.02-.94-.05-.15-.01-.29-.05-.43-.1-.25-.09-.32-.2-.32-.47V11.59ZM31.7 7.95v7.27c0 .47.06.53.53.53.39 0 .43 0 .44.39.03.77.02 1.54.01 2.3 0 .27-.07.31-.34.31h-.18c-.28.01-.42.17-.42.44v3.33c0 .26-.06.37-.32.41-.37.06-.74.09-1.11.09-.42 0-.83-.06-1.25-.09-.03 0-.06 0-.09-.02-.48-.1-.53-.16-.52-.64V19.4c0-.07 0-.15-.02-.22-.04-.25-.11-.33-.37-.35-.2-.02-.4-.01-.61-.01h-4.11c-.34 0-.45-.1-.49-.44-.02-.16 0-.32 0-.48 0-.84.02-1.68 0-2.53-.02-.84.12-1.63.4-2.42 1.42-4.01 2.84-8.02 4.24-12.04.16-.47.46-.72.95-.76.93-.08 1.85-.08 2.77.02.06 0 .12.02.18.04.26.07.31.15.31.42v7.31Zm-3.2 3.26h.02v-.38c.02-1.09.04-2.17.05-3.26 0-.26-.01-.51-.03-.77 0-.05-.07-.1-.1-.16-.05.04-.11.07-.15.12-.03.04-.05.1-.07.15-.06.22-.11.44-.17.66-.45 1.75-.88 3.51-1.38 5.25-.24.84-.24 1.67-.23 2.52 0 .25.16.43.37.43.45 0 .89-.01 1.34-.04.23-.01.28-.09.28-.33l.06-4.19Z"/></svg>