<svg width="30" height="30" viewBox="0 0 30 30" fill="none" xmlns="http://www.w3.org/2000/svg">
  <path fill-rule="evenodd" clip-rule="evenodd"
    d="M15 0C23.2843 0 30 6.71573 30 15C30 23.2843 23.2843 30 15 30C6.71573 30 0 23.2843 0 15C0 6.71573 6.71573 0 15 0ZM15 10.5C12.5147 10.5 10.5 12.5147 10.5 15C10.5 17.4853 12.5147 19.5 15 19.5C17.4853 19.5 19.5 17.4853 19.5 15C19.5 12.5147 17.4853 10.5 15 10.5ZM15 12C16.6569 12 18 13.3431 18 15C18 16.6569 16.6569 18 15 18C13.3431 18 12 16.6569 12 15C12 13.3431 13.3431 12 15 12ZM19.6271 9.20027C19.2129 9.20027 18.8771 9.53606 18.8771 9.95028C18.8771 10.3645 19.2129 10.7003 19.6271 10.7003C20.0413 10.7003 20.3771 10.3645 20.3771 9.95028C20.3771 9.53606 20.0413 9.20027 19.6271 9.20027ZM19.4423 6.75H10.5577C8.45476 6.75 6.75 8.45476 6.75 10.5577V19.4423C6.75 21.5452 8.45476 23.25 10.5577 23.25H19.4423C21.5452 23.25 23.25 21.5452 23.25 19.4423V10.5577C23.25 8.45476 21.5452 6.75 19.4423 6.75Z"
    fill="currentColor" />
</svg>