<svg width="30" height="30" viewBox="0 0 30 30" fill="none" xmlns="http://www.w3.org/2000/svg">
  <path fill-rule="evenodd" clip-rule="evenodd"
    d="M15 0C23.2843 0 30 6.71573 30 15C30 23.2843 23.2843 30 15 30C6.71573 30 0 23.2843 0 15C0 6.71573 6.71573 0 15 0ZM19.6043 11.25C18.2324 11.25 17.3038 11.8865 16.7755 12.4853L16.7174 12.5529L16.6627 12.6199C16.6097 12.6867 16.5618 12.7522 16.5189 12.8157L16.4777 12.8784L16.4584 12.9092H16.3959L16.2499 11.4811H13.5L13.5237 12.031L13.5372 12.3777L13.5497 12.7377L13.5572 12.9853L13.5671 13.3687L13.5726 13.6325L13.5789 14.0409L13.5816 14.3219C13.582 14.3694 13.5823 14.4171 13.5825 14.4651L13.5832 14.757V21.75H16.7498V15.8282C16.7498 15.534 16.7709 15.24 16.8541 15.0301C17.0834 14.4422 17.6041 13.8332 18.479 13.8332C19.609 13.8332 20.0705 14.7112 20.0832 16.0042L20.0834 16.0591V21.75H23.25V15.6811C23.25 12.6572 21.6877 11.25 19.6043 11.25ZM11.25 11.25H8.25V21.75H11.25V11.25ZM9.75918 6.75C8.8462 6.75 8.25 7.40133 8.25 8.24994C8.25 9.07869 8.82771 9.75 9.72196 9.75C10.6723 9.75 11.25 9.07869 11.25 8.24994C11.2315 7.40133 10.6723 6.75 9.75918 6.75Z"
    fill="currentColor" />
</svg>