<svg width="30" height="30" viewBox="0 0 30 30" fill="none" xmlns="http://www.w3.org/2000/svg">
  <path
    d="M15 0C23.2843 0 30 6.71573 30 15C30 23.2843 23.2843 30 15 30C6.71573 30 0 23.2843 0 15C0 6.71573 6.71573 0 15 0ZM18.7483 8.55C16.7609 8.55 15.1471 10.1446 15.1471 12.1082C15.1471 12.3887 15.177 12.6619 15.2443 12.9203C12.2483 12.7726 9.59598 11.3552 7.81782 9.19963C7.51149 9.72377 7.33218 10.3365 7.33218 10.9861C7.33218 12.219 7.96724 13.3115 8.93851 13.9464C8.34828 13.9316 7.7954 13.7692 7.30977 13.5035V13.5477C7.30977 15.2752 8.55 16.7073 10.2011 17.0395C9.9023 17.1207 9.58103 17.165 9.2523 17.165C9.02069 17.165 8.79655 17.1429 8.57241 17.0986C9.02816 18.516 10.358 19.5421 11.9345 19.5716C10.7017 20.5239 9.1477 21.0924 7.4592 21.0924C7.16782 21.0924 6.88391 21.0776 6.6 21.0407C8.17644 22.0594 10.0741 22.65 12.1063 22.65C18.7333 22.65 22.3569 17.2241 22.3569 12.5216C22.3569 12.3666 22.3569 12.2116 22.3494 12.0639C23.0517 11.5619 23.6644 10.9345 24.15 10.2184C23.5075 10.4989 22.8126 10.6908 22.0805 10.7794C22.8276 10.3365 23.3954 9.64257 23.6644 8.80838C22.9695 9.2144 22.2 9.50969 21.3782 9.67209C20.7207 8.97817 19.7868 8.55 18.7483 8.55Z"
    fill="currentColor" />
</svg>